<svg width="4588" height="1000" viewBox="0 0 4588 1000" fill="none" xmlns="http://www.w3.org/2000/svg">
<path d="M200 500C200 279.086 379.086 100 600 100L1000 100V500C1000 720.914 820.914 900 600 900H200L200 500Z" fill="#189EFF"/>
<path d="M437.5 700C427.5 700 418.75 696.25 411.25 688.75C403.75 681.25 400 672.5 400 662.5V591.875C400 581.52 408.395 573.125 418.75 573.125C429.105 573.125 437.5 581.52 437.5 591.875V642.5C437.5 653.546 446.454 662.5 457.5 662.5H742.5C753.546 662.5 762.5 653.546 762.5 642.5V591.875C762.5 581.52 770.895 573.125 781.25 573.125C791.605 573.125 800 581.52 800 591.875V662.5C800 672.5 796.25 681.25 788.75 688.75C781.25 696.25 772.5 700 762.5 700H437.5ZM614.142 590.233C606.332 598.043 593.668 598.043 585.858 590.233L492.813 497.188C485.391 489.766 485.391 477.734 492.812 470.313C500.234 462.891 512.266 462.891 519.688 470.313L547.108 497.733C559.707 510.332 581.25 501.409 581.25 483.591V318.75C581.25 308.395 589.645 300 600 300C610.355 300 618.75 308.395 618.75 318.75V483.591C618.75 501.409 640.293 510.332 652.892 497.733L680.312 470.313C687.734 462.891 699.766 462.891 707.188 470.313C714.609 477.734 714.609 489.766 707.188 497.188L614.142 590.233Z" fill="white"/>
<path d="M1294.21 684.12C1266.9 684.12 1246.25 676.44 1232.26 661.08C1218.26 645.379 1211.26 623.021 1211.26 594.008V573.528H1264.51V598.104C1264.51 621.315 1274.24 632.92 1293.7 632.92C1303.25 632.92 1310.42 630.189 1315.2 624.728C1320.32 618.925 1322.88 609.709 1322.88 597.08C1322.88 582.061 1319.47 568.92 1312.64 557.656C1305.81 546.051 1293.18 532.227 1274.75 516.184C1251.54 495.704 1235.33 477.272 1226.11 460.888C1216.9 444.163 1212.29 425.389 1212.29 404.568C1212.29 376.237 1219.46 354.392 1233.79 339.032C1248.13 323.331 1268.95 315.48 1296.26 315.48C1323.22 315.48 1343.53 323.331 1357.18 339.032C1371.18 354.392 1378.18 376.579 1378.18 405.592V420.44H1324.93V402.008C1324.93 389.72 1322.54 380.845 1317.76 375.384C1312.98 369.581 1305.98 366.68 1296.77 366.68C1277.99 366.68 1268.61 378.115 1268.61 400.984C1268.61 413.955 1272.02 426.072 1278.85 437.336C1286.02 448.6 1298.82 462.253 1317.25 478.296C1340.8 498.776 1357.01 517.379 1365.89 534.104C1374.76 550.829 1379.2 570.456 1379.2 592.984C1379.2 622.339 1371.86 644.867 1357.18 660.568C1342.85 676.269 1321.86 684.12 1294.21 684.12ZM1634.72 371.8H1575.84V320.6H1749.92V371.8H1691.04V679H1634.72V371.8ZM2035.8 684.12C2008.15 684.12 1986.99 676.269 1972.31 660.568C1957.63 644.867 1950.3 622.68 1950.3 594.008V405.592C1950.3 376.92 1957.63 354.733 1972.31 339.032C1986.99 323.331 2008.15 315.48 2035.8 315.48C2063.45 315.48 2084.61 323.331 2099.29 339.032C2113.97 354.733 2121.3 376.92 2121.3 405.592V594.008C2121.3 622.68 2113.97 644.867 2099.29 660.568C2084.61 676.269 2063.45 684.12 2035.8 684.12ZM2035.8 632.92C2055.26 632.92 2064.98 621.144 2064.98 597.592V402.008C2064.98 378.456 2055.26 366.68 2035.8 366.68C2016.34 366.68 2006.62 378.456 2006.62 402.008V597.592C2006.62 621.144 2016.34 632.92 2035.8 632.92ZM2417.95 684.12C2390.99 684.12 2370.34 676.44 2356 661.08C2342.01 645.72 2335.01 624.045 2335.01 596.056V403.544C2335.01 375.555 2342.01 353.88 2356 338.52C2370.34 323.16 2390.99 315.48 2417.95 315.48C2444.92 315.48 2465.4 323.16 2479.39 338.52C2493.73 353.88 2500.9 375.555 2500.9 403.544V441.432H2447.65V399.96C2447.65 377.773 2438.26 366.68 2419.49 366.68C2400.71 366.68 2391.33 377.773 2391.33 399.96V600.152C2391.33 621.997 2400.71 632.92 2419.49 632.92C2438.26 632.92 2447.65 621.997 2447.65 600.152V545.368H2500.9V596.056C2500.9 624.045 2493.73 645.72 2479.39 661.08C2465.4 676.44 2444.92 684.12 2417.95 684.12ZM2713.79 320.6H2770.11V471.64L2841.79 320.6H2898.11L2831.04 452.184L2899.14 679H2840.26L2792.64 519.256L2770.11 564.824V679H2713.79V320.6ZM3104.99 320.6H3161.31V627.8H3253.98V679H3104.99V320.6ZM3460.19 320.6H3613.79V371.8H3516.51V466.52H3593.82V517.72H3516.51V627.8H3613.79V679H3460.19V320.6ZM3825.39 320.6H3908.85C3937.86 320.6 3959.02 327.427 3972.34 341.08C3985.65 354.392 3992.3 375.043 3992.3 403.032V425.048C3992.3 462.253 3980.02 485.805 3955.44 495.704V496.728C3969.09 500.824 3978.65 509.187 3984.11 521.816C3989.91 534.445 3992.82 551.341 3992.82 572.504V635.48C3992.82 645.72 3993.16 654.083 3993.84 660.568C3994.52 666.712 3996.23 672.856 3998.96 679H3941.62C3939.57 673.197 3938.2 667.736 3937.52 662.616C3936.84 657.496 3936.5 648.28 3936.5 634.968V569.432C3936.5 553.048 3933.77 541.613 3928.3 535.128C3923.18 528.643 3914.14 525.4 3901.17 525.4H3881.71V679H3825.39V320.6ZM3902.19 474.2C3913.46 474.2 3921.82 471.299 3927.28 465.496C3933.08 459.693 3935.98 449.965 3935.98 436.312V408.664C3935.98 395.693 3933.59 386.307 3928.82 380.504C3924.38 374.701 3917.21 371.8 3907.31 371.8H3881.71V474.2H3902.19ZM4199.83 628.824L4304.28 371.8H4204.95V320.6H4364.69V370.776L4260.24 627.8H4364.69V679H4199.83V628.824Z" fill="#189EFF"/>
</svg>
