<!-- <svg width="410" height="404" viewBox="0 0 410 404" fill="none" xmlns="http://www.w3.org/2000/svg">
<path d="M399.641 59.5246L215.643 388.545C211.844 395.338 202.084 395.378 198.228 388.618L10.5817 59.5563C6.38087 52.1896 12.6802 43.2665 21.0281 44.7586L205.223 77.6824C206.398 77.8924 207.601 77.8904 208.776 77.6763L389.119 44.8058C397.439 43.2894 403.768 52.1434 399.641 59.5246Z" fill="url(#paint0_linear)"/>
<path d="M292.965 1.5744L156.801 28.2552C154.563 28.6937 152.906 30.5903 152.771 32.8664L144.395 174.33C144.198 177.662 147.258 180.248 150.51 179.498L188.42 170.749C191.967 169.931 195.172 173.055 194.443 176.622L183.18 231.775C182.422 235.487 185.907 238.661 189.532 237.56L212.947 230.446C216.577 229.344 220.065 232.527 219.297 236.242L201.398 322.875C200.278 328.294 207.486 331.249 210.492 326.603L212.5 323.5L323.454 102.072C325.312 98.3645 322.108 94.137 318.036 94.9228L279.014 102.454C275.347 103.161 272.227 99.746 273.262 96.1583L298.731 7.86689C299.767 4.27314 296.636 0.855181 292.965 1.5744Z" fill="url(#paint1_linear)"/>
<defs>
<linearGradient id="paint0_linear" x1="6.00017" y1="32.9999" x2="235" y2="344" gradientUnits="userSpaceOnUse">
<stop stop-color="#41D1FF"/>
<stop offset="1" stop-color="#BD34FE"/>
</linearGradient>
<linearGradient id="paint1_linear" x1="194.651" y1="8.81818" x2="236.076" y2="292.989" gradientUnits="userSpaceOnUse">
<stop stop-color="#FFEA83"/>
<stop offset="0.0833333" stop-color="#FFDD35"/>
<stop offset="1" stop-color="#FFA800"/>
</linearGradient>
</defs>
</svg> -->


<svg width="1000" height="1000" viewBox="0 0 1000 1000" fill="none" xmlns="http://www.w3.org/2000/svg">
<path d="M100 500C100 279.086 279.086 100 500 100L900 100V500C900 720.914 720.914 900 500 900H100L100 500Z" fill="#189EFF"/>
<path d="M337.5 700C327.5 700 318.75 696.25 311.25 688.75C303.75 681.25 300 672.5 300 662.5V591.875C300 581.52 308.395 573.125 318.75 573.125C329.105 573.125 337.5 581.52 337.5 591.875V642.5C337.5 653.546 346.454 662.5 357.5 662.5H642.5C653.546 662.5 662.5 653.546 662.5 642.5V591.875C662.5 581.52 670.895 573.125 681.25 573.125C691.605 573.125 700 581.52 700 591.875V662.5C700 672.5 696.25 681.25 688.75 688.75C681.25 696.25 672.5 700 662.5 700H337.5ZM514.142 590.233C506.332 598.043 493.668 598.043 485.858 590.233L392.813 497.188C385.391 489.766 385.391 477.734 392.812 470.313C400.234 462.891 412.266 462.891 419.688 470.313L447.108 497.733C459.707 510.332 481.25 501.409 481.25 483.591V318.75C481.25 308.395 489.645 300 500 300C510.355 300 518.75 308.395 518.75 318.75V483.591C518.75 501.409 540.293 510.332 552.892 497.733L580.312 470.313C587.734 462.891 599.766 462.891 607.188 470.313C614.609 477.734 614.609 489.766 607.188 497.188L514.142 590.233Z" fill="white"/>
</svg>
